<svg xmlns="http://www.w3.org/2000/svg" xmlns:xlink="http://www.w3.org/1999/xlink" width="500" zoomAndPan="magnify" viewBox="0 0 375 374.999991" height="500" preserveAspectRatio="xMidYMid meet" version="1.2"><defs><clipPath id="e9def96e0f"><path d="M 154 187 L 229 187 L 229 208.949219 L 154 208.949219 Z M 154 187 "/></clipPath><clipPath id="7206784f88"><path d="M 139.109375 131 L 150 131 L 150 181 L 139.109375 181 Z M 139.109375 131 "/></clipPath><clipPath id="236775f416"><path d="M 202 159 L 235.859375 159 L 235.859375 204 L 202 204 Z M 202 159 "/></clipPath><clipPath id="4b1935464e"><path d="M 142 112.199219 L 188 112.199219 L 188 197 L 142 197 Z M 142 112.199219 "/></clipPath></defs><g id="371429d92c"><rect x="0" width="375" y="0" height="374.999991" style="fill:#ffffff;fill-opacity:1;stroke:none;"/><rect x="0" width="375" y="0" height="374.999991" style="fill:#050a30;fill-opacity:1;stroke:none;"/><g clip-rule="nonzero" clip-path="url(#e9def96e0f)"><path style=" stroke:none;fill-rule:nonzero;fill:#5cb6f9;fill-opacity:1;" d="M 225.71875 188.539062 C 225.726562 188.53125 225.734375 188.519531 225.746094 188.503906 C 225.734375 188.519531 225.726562 188.53125 225.71875 188.539062 Z M 226.121094 190.375 C 225.492188 189.898438 225.371094 189 225.851562 188.371094 C 225.828125 188.402344 225.804688 188.429688 225.78125 188.457031 C 225.800781 188.433594 225.824219 188.40625 225.851562 188.371094 C 225.933594 188.261719 225.972656 188.210938 225.984375 188.195312 C 225.96875 188.214844 225.910156 188.292969 225.851562 188.371094 C 226.328125 187.742188 227.226562 187.621094 227.855469 188.101562 C 228.480469 188.578125 228.605469 189.476562 228.125 190.105469 C 227.648438 190.730469 226.746094 190.855469 226.121094 190.375 Z M 154.476562 193.820312 C 153.851562 194.480469 153.886719 195.527344 154.550781 196.148438 C 155.03125 196.601562 155.710938 196.707031 156.285156 196.480469 C 165.292969 204.296875 176.738281 208.585938 188.683594 208.585938 C 196.402344 208.585938 203.796875 206.851562 210.671875 203.429688 C 216.683594 200.4375 222.109375 196.171875 226.46875 191.03125 C 227.1875 191.238281 227.992188 191 228.472656 190.371094 C 229.101562 189.550781 228.941406 188.375 228.121094 187.75 C 227.300781 187.125 226.125 187.285156 225.5 188.105469 C 225.046875 188.699219 225.007812 189.484375 225.335938 190.109375 C 216.160156 200.945312 202.90625 207.121094 188.683594 207.121094 C 177.101562 207.121094 166.007812 202.96875 157.265625 195.394531 C 157.429688 194.820312 157.273438 194.179688 156.808594 193.746094 C 156.144531 193.121094 155.101562 193.152344 154.476562 193.820312 "/></g><g clip-rule="nonzero" clip-path="url(#7206784f88)"><path style=" stroke:none;fill-rule:nonzero;fill:#5cb6f9;fill-opacity:1;" d="M 145.351562 178.117188 C 145.351562 178.109375 145.34375 178.097656 145.335938 178.078125 C 145.34375 178.097656 145.351562 178.109375 145.351562 178.117188 Z M 145.207031 177.789062 C 145.167969 177.699219 145.148438 177.660156 145.207031 177.789062 Z M 143.371094 177.195312 C 144.089844 176.871094 144.9375 177.195312 145.261719 177.914062 C 145.585938 178.632812 145.261719 179.480469 144.542969 179.804688 C 143.824219 180.128906 142.976562 179.804688 142.652344 179.085938 C 142.328125 178.367188 142.652344 177.519531 143.371094 177.195312 Z M 148.8125 133.976562 C 149.3125 133.214844 149.097656 132.191406 148.335938 131.691406 C 147.574219 131.191406 146.550781 131.40625 146.050781 132.167969 C 145.6875 132.722656 145.707031 133.421875 146.039062 133.949219 C 141.542969 141.550781 139.175781 150.203125 139.175781 159.078125 C 139.175781 165.34375 140.332031 171.433594 142.613281 177.203125 C 142.097656 177.734375 141.929688 178.550781 142.25 179.265625 C 142.675781 180.207031 143.78125 180.628906 144.722656 180.207031 C 145.664062 179.78125 146.085938 178.675781 145.664062 177.734375 C 145.351562 177.042969 144.671875 176.632812 143.960938 176.632812 C 141.757812 171.042969 140.636719 165.148438 140.636719 159.078125 C 140.636719 150.472656 142.929688 142.085938 147.285156 134.714844 C 147.871094 134.769531 148.46875 134.503906 148.8125 133.976562 "/></g><path style=" stroke:none;fill-rule:nonzero;fill:#5cb6f9;fill-opacity:1;" d="M 209.113281 120.296875 C 209.128906 120.304688 209.132812 120.308594 209.113281 120.296875 Z M 209.105469 120.292969 C 209.09375 120.289062 209.078125 120.28125 209.058594 120.269531 C 209.078125 120.28125 209.09375 120.289062 209.105469 120.292969 Z M 210.199219 117.640625 C 210.90625 117.996094 211.191406 118.855469 210.839844 119.5625 C 210.488281 120.265625 209.628906 120.554688 208.921875 120.203125 C 208.214844 119.851562 207.929688 118.988281 208.28125 118.285156 C 208.632812 117.578125 209.492188 117.289062 210.199219 117.640625 Z M 225.636719 130.203125 C 225.234375 129.671875 224.570312 129.453125 223.957031 129.589844 C 220.441406 125.398438 216.15625 121.816406 211.417969 119.105469 C 211.492188 118.355469 211.109375 117.605469 210.394531 117.25 C 209.472656 116.789062 208.347656 117.164062 207.886719 118.089844 C 207.429688 119.011719 207.804688 120.132812 208.726562 120.597656 C 209.394531 120.929688 210.167969 120.820312 210.71875 120.390625 C 215.289062 123.007812 219.425781 126.464844 222.820312 130.511719 C 222.578125 131.046875 222.625 131.695312 223.003906 132.195312 C 223.554688 132.921875 224.59375 133.0625 225.316406 132.515625 C 226.042969 131.964844 226.1875 130.929688 225.636719 130.203125 "/><g clip-rule="nonzero" clip-path="url(#236775f416)"><path style=" stroke:none;fill-rule:nonzero;fill:#5cb6f9;fill-opacity:1;" d="M 232.480469 161.082031 C 232.476562 161.105469 232.476562 161.121094 232.476562 161.128906 C 232.476562 161.121094 232.476562 161.105469 232.480469 161.082031 Z M 232.484375 160.691406 C 232.484375 160.6875 232.484375 160.6875 232.484375 160.691406 Z M 233.941406 159.515625 C 234.730469 159.53125 235.359375 160.1875 235.34375 160.972656 C 235.324219 161.761719 234.671875 162.390625 233.882812 162.375 C 233.09375 162.359375 232.464844 161.707031 232.480469 160.917969 C 232.480469 160.976562 232.480469 161.035156 232.480469 161.078125 C 232.480469 161.042969 232.480469 160.988281 232.480469 160.914062 C 232.484375 160.800781 232.484375 160.734375 232.484375 160.707031 C 232.484375 160.742188 232.484375 160.828125 232.480469 160.914062 C 232.5 160.128906 233.152344 159.5 233.941406 159.515625 Z M 235.78125 160.984375 C 235.800781 159.953125 234.980469 159.097656 233.949219 159.078125 C 232.917969 159.054688 232.0625 159.875 232.042969 160.90625 C 232.027344 161.652344 232.453125 162.304688 233.078125 162.617188 C 231.753906 179.515625 221.046875 194.074219 205.269531 200.410156 C 204.835938 200.011719 204.203125 199.855469 203.609375 200.058594 C 202.746094 200.359375 202.289062 201.296875 202.589844 202.160156 C 202.886719 203.019531 203.824219 203.476562 204.6875 203.179688 C 205.316406 202.960938 205.730469 202.398438 205.789062 201.777344 C 213.683594 198.605469 220.523438 193.328125 225.636719 186.4375 C 230.808594 179.476562 233.867188 171.304688 234.539062 162.703125 C 235.25 162.449219 235.765625 161.78125 235.78125 160.984375 C 235.78125 160.984375 235.78125 160.988281 235.78125 160.988281 C 235.78125 160.988281 235.78125 160.984375 235.78125 160.984375 C 235.78125 160.953125 235.78125 160.925781 235.78125 160.902344 C 235.78125 160.929688 235.78125 160.957031 235.78125 160.984375 "/></g><g clip-rule="nonzero" clip-path="url(#4b1935464e)"><path style=" stroke:none;fill-rule:nonzero;fill:#5cb6f9;fill-opacity:1;" d="M 161.835938 193.707031 C 161.832031 193.703125 161.832031 193.703125 161.835938 193.707031 Z M 160.015625 194.136719 C 160.484375 193.503906 161.378906 193.371094 162.015625 193.839844 C 161.941406 193.785156 161.871094 193.734375 161.84375 193.710938 C 161.863281 193.730469 161.917969 193.765625 162.015625 193.839844 C 162.128906 193.921875 162.179688 193.960938 162.195312 193.972656 C 162.175781 193.957031 162.09375 193.898438 162.015625 193.839844 C 162.648438 194.308594 162.785156 195.207031 162.3125 195.839844 C 161.84375 196.476562 160.949219 196.609375 160.3125 196.140625 C 159.679688 195.671875 159.542969 194.773438 160.015625 194.136719 Z M 184.582031 113.261719 C 173.445312 114.25 163.117188 119.238281 155.34375 127.414062 C 147.179688 136.007812 142.683594 147.25 142.683594 159.078125 C 142.683594 166.355469 144.34375 173.320312 147.613281 179.78125 C 150.457031 185.402344 154.5 190.453125 159.363281 194.492188 C 159.164062 195.214844 159.414062 196.019531 160.050781 196.492188 C 160.878906 197.105469 162.054688 196.929688 162.667969 196.101562 C 163.28125 195.273438 163.105469 194.097656 162.277344 193.488281 C 161.675781 193.042969 160.890625 193.015625 160.273438 193.347656 C 150.003906 184.839844 144.148438 172.449219 144.148438 159.078125 C 144.148438 135.949219 161.828125 116.761719 184.679688 114.722656 C 184.976562 115.234375 185.542969 115.570312 186.179688 115.542969 C 187.089844 115.5 187.792969 114.730469 187.753906 113.820312 C 187.710938 112.910156 186.9375 112.203125 186.03125 112.246094 C 185.367188 112.273438 184.820312 112.691406 184.582031 113.261719 "/></g><path style=" stroke:none;fill-rule:nonzero;fill:#5cb6f9;fill-opacity:1;" d="M 226.769531 172.335938 C 226.765625 172.347656 226.761719 172.363281 226.757812 172.375 C 226.761719 172.363281 226.765625 172.347656 226.769531 172.335938 Z M 226.753906 172.382812 C 226.75 172.398438 226.742188 172.414062 226.742188 172.425781 C 226.742188 172.414062 226.75 172.398438 226.753906 172.382812 Z M 226.730469 172.457031 C 226.726562 172.464844 226.726562 172.464844 226.730469 172.457031 Z M 226.839844 172.117188 C 226.839844 172.113281 226.839844 172.113281 226.84375 172.109375 C 226.839844 172.113281 226.839844 172.113281 226.839844 172.117188 Z M 226.855469 172.066406 C 226.863281 172.046875 226.867188 172.035156 226.867188 172.03125 C 226.863281 172.035156 226.863281 172.046875 226.855469 172.066406 Z M 228.597656 171.324219 C 229.351562 171.566406 229.761719 172.375 229.519531 173.125 C 229.277344 173.875 228.472656 174.289062 227.71875 174.046875 C 226.96875 173.804688 226.554688 172.996094 226.796875 172.246094 C 226.808594 172.210938 226.820312 172.183594 226.828125 172.15625 C 226.816406 172.183594 226.808594 172.214844 226.796875 172.246094 C 227.039062 171.496094 227.847656 171.082031 228.597656 171.324219 Z M 229.976562 173.144531 C 229.964844 173.179688 229.953125 173.21875 229.9375 173.257812 C 230.253906 172.277344 229.714844 171.222656 228.734375 170.90625 C 227.753906 170.589844 226.699219 171.128906 226.378906 172.109375 C 226.152344 172.820312 226.371094 173.566406 226.878906 174.046875 C 220.734375 189.703125 205.605469 200.101562 188.683594 200.101562 C 174.773438 200.101562 161.6875 192.902344 154.160156 181.214844 C 154.472656 180.71875 154.507812 180.070312 154.195312 179.523438 C 153.742188 178.734375 152.734375 178.457031 151.945312 178.910156 C 151.152344 179.359375 150.878906 180.367188 151.328125 181.160156 C 151.660156 181.738281 152.289062 182.039062 152.914062 181.984375 C 156.554688 187.644531 161.507812 192.398438 167.324219 195.792969 C 173.789062 199.570312 181.171875 201.5625 188.683594 201.5625 C 206.222656 201.5625 221.898438 190.78125 228.253906 174.550781 C 229.007812 174.511719 229.695312 174.015625 229.9375 173.257812 C 229.90625 173.359375 229.875 173.460938 229.855469 173.511719 C 229.871094 173.472656 229.894531 173.394531 229.9375 173.257812 C 229.953125 173.214844 229.964844 173.175781 229.976562 173.144531 "/><path style=" stroke:none;fill-rule:nonzero;fill:#5cb6f9;fill-opacity:1;" d="M 146.941406 159.664062 C 146.152344 159.660156 145.515625 159.011719 145.519531 158.226562 C 145.523438 157.433594 146.167969 156.796875 146.957031 156.800781 C 147.746094 156.804688 148.382812 157.449219 148.378906 158.238281 C 148.378906 158.042969 148.382812 157.84375 148.378906 158.238281 C 148.378906 158.359375 148.378906 158.421875 148.378906 158.449219 C 148.378906 158.414062 148.378906 158.328125 148.378906 158.238281 C 148.375 159.027344 147.730469 159.667969 146.941406 159.664062 Z M 188.683594 117.320312 C 188.660156 116.410156 187.902344 115.6875 186.992188 115.710938 C 186.328125 115.730469 185.769531 116.136719 185.519531 116.707031 C 175.246094 117.46875 165.660156 121.910156 158.378906 129.324219 C 151.148438 136.6875 146.890625 146.273438 146.277344 156.488281 C 145.578125 156.757812 145.082031 157.433594 145.078125 158.222656 C 145.074219 159.253906 145.910156 160.097656 146.941406 160.101562 C 147.96875 160.105469 148.8125 159.273438 148.816406 158.242188 C 148.820312 157.488281 148.378906 156.839844 147.738281 156.539062 C 148.984375 136.117188 165.171875 119.691406 185.59375 118.167969 C 185.886719 118.683594 186.441406 119.027344 187.074219 119.011719 C 187.988281 118.988281 188.707031 118.230469 188.683594 117.320312 "/><path style=" stroke:none;fill-rule:nonzero;fill:#5cb6f9;fill-opacity:1;" d="M 159.546875 136.605469 C 159.550781 136.597656 159.550781 136.597656 159.546875 136.605469 Z M 159.535156 136.621094 C 159.515625 136.648438 159.484375 136.691406 159.429688 136.765625 C 159.472656 136.707031 159.511719 136.652344 159.535156 136.621094 Z M 159.40625 136.800781 C 159.371094 136.847656 159.34375 136.886719 159.324219 136.910156 C 159.34375 136.882812 159.375 136.839844 159.40625 136.800781 Z M 159.316406 136.921875 C 159.304688 136.933594 159.300781 136.941406 159.296875 136.949219 C 159.300781 136.941406 159.308594 136.933594 159.316406 136.921875 Z M 159.289062 136.960938 C 159.28125 136.96875 159.28125 136.96875 159.289062 136.960938 Z M 159.109375 134.785156 C 159.746094 135.25 159.882812 136.148438 159.417969 136.785156 C 158.949219 137.421875 158.054688 137.558594 157.417969 137.09375 C 156.78125 136.625 156.640625 135.730469 157.109375 135.09375 C 157.574219 134.457031 158.472656 134.316406 159.109375 134.785156 Z M 215.285156 130.617188 C 208.035156 123.824219 198.652344 120.097656 188.683594 120.097656 C 182.488281 120.097656 176.5625 121.515625 171.066406 124.3125 C 166.371094 126.699219 162.148438 130.078125 158.757812 134.136719 C 158.03125 133.9375 157.226562 134.191406 156.753906 134.832031 C 156.144531 135.664062 156.324219 136.835938 157.15625 137.445312 C 157.988281 138.054688 159.160156 137.875 159.769531 137.042969 C 160.210938 136.441406 160.238281 135.660156 159.902344 135.042969 C 167.066406 126.453125 177.457031 121.5625 188.683594 121.5625 C 198.265625 121.5625 207.285156 125.136719 214.261719 131.664062 C 214.082031 132.222656 214.203125 132.859375 214.640625 133.3125 C 215.269531 133.972656 216.3125 133.996094 216.972656 133.363281 C 217.628906 132.734375 217.652344 131.691406 217.023438 131.03125 C 216.5625 130.550781 215.878906 130.410156 215.285156 130.617188 "/><path style=" stroke:none;fill-rule:nonzero;fill:#5cb6f9;fill-opacity:1;" d="M 188.214844 192.378906 C 188.222656 192.378906 188.230469 192.378906 188.242188 192.378906 C 188.230469 192.378906 188.222656 192.378906 188.214844 192.378906 Z M 188.257812 192.378906 C 188.28125 192.378906 188.3125 192.378906 188.359375 192.375 C 188.320312 192.378906 188.285156 192.378906 188.257812 192.378906 Z M 188.617188 192.371094 C 188.625 192.371094 188.632812 192.371094 188.640625 192.371094 C 188.632812 192.371094 188.625 192.371094 188.617188 192.371094 Z M 188.660156 192.371094 C 188.667969 192.371094 188.667969 192.371094 188.660156 192.371094 Z M 187.035156 193.832031 C 187.019531 193.042969 187.652344 192.386719 188.4375 192.375 C 188.472656 192.375 188.5 192.375 188.527344 192.375 C 188.5 192.375 188.46875 192.375 188.4375 192.375 C 189.226562 192.359375 189.882812 192.992188 189.894531 193.78125 C 189.910156 194.570312 189.277344 195.222656 188.488281 195.234375 C 187.699219 195.25 187.046875 194.621094 187.035156 193.832031 Z M 188.496094 195.675781 C 189.527344 195.65625 190.351562 194.800781 190.332031 193.773438 C 190.316406 192.742188 189.460938 191.917969 188.433594 191.9375 C 187.691406 191.949219 187.058594 192.394531 186.769531 193.023438 C 168.917969 192.027344 154.679688 177.15625 154.679688 159.078125 C 154.679688 146.578125 161.382812 135.308594 172.269531 129.304688 C 172.742188 129.648438 173.382812 129.730469 173.949219 129.464844 C 174.773438 129.074219 175.125 128.089844 174.734375 127.265625 C 174.34375 126.441406 173.363281 126.089844 172.539062 126.480469 C 171.929688 126.765625 171.582031 127.375 171.59375 128.007812 C 166.363281 130.894531 161.933594 135.058594 158.714844 140.128906 C 155.117188 145.792969 153.21875 152.347656 153.21875 159.078125 C 153.21875 177.949219 168.089844 193.46875 186.726562 194.488281 C 187.003906 195.195312 187.695312 195.6875 188.496094 195.675781 "/><path style=" stroke:none;fill-rule:nonzero;fill:#5cb6f9;fill-opacity:1;" d="M 161.4375 171.148438 C 161.4375 171.148438 161.441406 171.152344 161.441406 171.15625 C 161.441406 171.152344 161.4375 171.148438 161.4375 171.148438 Z M 161.554688 171.386719 C 161.5625 171.398438 161.566406 171.414062 161.574219 171.425781 C 161.566406 171.410156 161.5625 171.398438 161.554688 171.386719 Z M 161.613281 171.503906 C 161.621094 171.523438 161.628906 171.535156 161.632812 171.542969 C 161.628906 171.535156 161.621094 171.519531 161.613281 171.503906 Z M 159.617188 170.6875 C 160.328125 170.339844 161.183594 170.632812 161.535156 171.34375 C 161.882812 172.050781 161.589844 172.910156 160.882812 173.257812 C 160.171875 173.605469 159.316406 173.3125 158.964844 172.605469 C 158.617188 171.898438 158.910156 171.039062 159.617188 170.6875 Z M 156.726562 159.078125 C 156.726562 163.089844 157.460938 166.984375 158.90625 170.675781 C 158.375 171.226562 158.214844 172.074219 158.574219 172.796875 C 158.523438 172.699219 158.476562 172.601562 158.453125 172.558594 C 158.472656 172.59375 158.507812 172.667969 158.574219 172.796875 C 158.636719 172.929688 158.671875 173 158.691406 173.035156 C 158.667969 172.992188 158.621094 172.894531 158.574219 172.796875 C 159.027344 173.722656 160.148438 174.105469 161.074219 173.652344 C 162 173.195312 162.382812 172.074219 161.925781 171.148438 C 161.605469 170.492188 160.941406 170.109375 160.253906 170.105469 C 158.886719 166.597656 158.191406 162.894531 158.191406 159.078125 C 158.191406 142.261719 171.871094 128.585938 188.683594 128.585938 C 190.863281 128.585938 193.027344 128.820312 195.140625 129.277344 C 195.269531 129.84375 195.6875 130.324219 196.285156 130.496094 C 197.160156 130.753906 198.078125 130.253906 198.332031 129.378906 C 198.589844 128.503906 198.085938 127.585938 197.214844 127.332031 C 196.566406 127.140625 195.898438 127.367188 195.488281 127.851562 C 193.261719 127.367188 190.980469 127.121094 188.683594 127.121094 C 171.0625 127.121094 156.726562 141.457031 156.726562 159.078125 "/><path style=" stroke:none;fill-rule:nonzero;fill:#5cb6f9;fill-opacity:1;" d="M 207.328125 177.578125 C 207.3125 177.59375 207.300781 177.609375 207.292969 177.617188 C 207.300781 177.609375 207.3125 177.59375 207.328125 177.578125 Z M 207.476562 177.417969 C 207.488281 177.402344 207.5 177.390625 207.511719 177.378906 C 207.5 177.390625 207.488281 177.40625 207.476562 177.417969 Z M 207.546875 177.339844 C 207.585938 177.296875 207.578125 177.308594 207.546875 177.339844 Z M 209.441406 177.398438 C 210.019531 177.933594 210.054688 178.839844 209.519531 179.421875 C 208.984375 180 208.078125 180.035156 207.5 179.5 C 206.917969 178.964844 206.882812 178.058594 207.417969 177.480469 C 207.414062 177.484375 207.40625 177.492188 207.398438 177.5 C 207.40625 177.492188 207.414062 177.488281 207.417969 177.480469 C 207.429688 177.46875 207.4375 177.457031 207.449219 177.449219 C 207.4375 177.457031 207.429688 177.46875 207.417969 177.480469 C 207.953125 176.898438 208.859375 176.863281 209.441406 177.398438 Z M 209.84375 179.71875 C 210.542969 178.960938 210.496094 177.777344 209.738281 177.078125 C 208.980469 176.378906 207.796875 176.425781 207.097656 177.179688 C 206.597656 177.71875 206.480469 178.476562 206.726562 179.117188 C 201.761719 183.605469 195.421875 186.058594 188.683594 186.058594 C 173.804688 186.058594 161.703125 173.953125 161.703125 159.078125 C 161.703125 145.289062 172.089844 133.796875 185.621094 132.269531 C 185.921875 132.761719 186.46875 133.085938 187.085938 133.066406 C 188 133.035156 188.710938 132.273438 188.683594 131.363281 C 188.652344 130.453125 187.890625 129.738281 186.980469 129.769531 C 186.304688 129.789062 185.734375 130.21875 185.5 130.8125 C 171.210938 132.402344 160.238281 144.523438 160.238281 159.078125 C 160.238281 174.761719 173 187.519531 188.683594 187.519531 C 195.804688 187.519531 202.503906 184.921875 207.742188 180.171875 C 208.449219 180.464844 209.296875 180.3125 209.84375 179.71875 "/><path style=" stroke:none;fill-rule:nonzero;fill:#5cb6f9;fill-opacity:1;" d="M 211.390625 160.667969 C 211.390625 160.671875 211.390625 160.679688 211.390625 160.6875 C 211.390625 160.679688 211.390625 160.671875 211.390625 160.667969 Z M 211.390625 160.71875 C 211.390625 160.753906 211.386719 160.800781 211.386719 160.851562 C 211.386719 160.792969 211.390625 160.746094 211.390625 160.71875 Z M 211.375 161.074219 C 211.375 161.078125 211.375 161.082031 211.375 161.085938 C 211.375 161.082031 211.375 161.078125 211.375 161.074219 Z M 211.375 161.113281 C 211.375 161.117188 211.375 161.117188 211.375 161.113281 Z M 212.867188 159.515625 C 213.65625 159.542969 214.273438 160.210938 214.242188 161 C 214.210938 161.789062 213.546875 162.402344 212.757812 162.375 C 211.96875 162.34375 211.355469 161.675781 211.382812 160.890625 C 211.414062 160.101562 212.078125 159.484375 212.867188 159.515625 Z M 214.683594 161.015625 C 214.722656 159.984375 213.914062 159.117188 212.886719 159.078125 C 211.855469 159.035156 210.984375 159.84375 210.945312 160.871094 C 210.917969 161.59375 211.304688 162.234375 211.890625 162.570312 C 210.820312 169.667969 206.507812 175.941406 200.230469 179.503906 C 199.769531 179.167969 199.148438 179.082031 198.589844 179.332031 C 197.757812 179.707031 197.382812 180.679688 197.757812 181.511719 C 198.128906 182.34375 199.105469 182.71875 199.9375 182.34375 C 200.5625 182.0625 200.929688 181.441406 200.914062 180.796875 C 207.613281 177.011719 212.21875 170.3125 213.34375 162.734375 C 214.089844 162.511719 214.648438 161.835938 214.683594 161.015625 "/><path style=" stroke:none;fill-rule:nonzero;fill:#5cb6f9;fill-opacity:1;" d="M 180.878906 180.480469 C 180.878906 180.480469 180.878906 180.480469 180.875 180.480469 C 180.878906 180.480469 180.878906 180.480469 180.878906 180.480469 Z M 180.246094 183.277344 C 179.492188 183.046875 179.066406 182.242188 179.300781 181.488281 C 179.535156 180.734375 180.335938 180.3125 181.089844 180.546875 C 181.011719 180.519531 180.929688 180.496094 180.894531 180.484375 C 180.921875 180.492188 180.984375 180.511719 181.089844 180.546875 C 181.207031 180.582031 181.269531 180.601562 181.292969 180.609375 C 181.261719 180.597656 181.175781 180.574219 181.089844 180.546875 C 181.84375 180.777344 182.265625 181.582031 182.035156 182.335938 C 181.800781 183.089844 181 183.511719 180.246094 183.277344 Z M 165.535156 162.9375 C 166.007812 162.621094 166.304688 162.0625 166.257812 161.453125 C 166.195312 160.542969 165.40625 159.859375 164.496094 159.925781 C 163.585938 159.988281 162.902344 160.777344 162.96875 161.6875 C 163.015625 162.371094 163.472656 162.925781 164.082031 163.132812 C 165.457031 171.472656 171.039062 178.605469 178.800781 181.964844 C 178.824219 182.742188 179.332031 183.457031 180.113281 183.699219 C 180.011719 183.667969 179.910156 183.632812 179.859375 183.617188 C 179.898438 183.632812 179.976562 183.65625 180.113281 183.699219 C 180.265625 183.746094 180.34375 183.769531 180.378906 183.78125 C 180.335938 183.765625 180.226562 183.730469 180.113281 183.699219 C 181.097656 184.003906 182.148438 183.449219 182.453125 182.464844 C 182.757812 181.480469 182.207031 180.429688 181.21875 180.125 C 180.53125 179.914062 179.8125 180.121094 179.335938 180.601562 C 172.0625 177.433594 166.835938 170.753906 165.535156 162.9375 "/><g style="fill:#cae8ff;fill-opacity:1;"><g transform="translate(75.457031, 240.799467)"><path style="stroke:none" d="M 2.484375 0 L 2.484375 -19.3125 L 7.171875 -19.3125 L 12.296875 -5.578125 L 17.421875 -19.3125 L 22.09375 -19.3125 L 22.09375 0 L 18.765625 0 L 18.765625 -14.453125 L 13.96875 -1.6875 L 10.609375 -1.6875 L 5.828125 -14.453125 L 5.828125 0 Z M 2.484375 0 "/></g></g><g style="fill:#cae8ff;fill-opacity:1;"><g transform="translate(100.035631, 240.799467)"><path style="stroke:none" d="M 0.171875 0 L 7.90625 -19.3125 L 10.5 -19.3125 L 18.203125 0 L 14.453125 0 L 12.96875 -4.203125 L 5.453125 -4.203125 L 3.953125 0 Z M 6.625 -7.171875 L 11.78125 -7.171875 L 9.21875 -14.21875 Z M 6.625 -7.171875 "/></g></g><g style="fill:#cae8ff;fill-opacity:1;"><g transform="translate(118.394402, 240.799467)"><path style="stroke:none" d="M 6.328125 0 L 6.328125 -16.21875 L 0.28125 -16.21875 L 0.28125 -19.3125 L 15.84375 -19.3125 L 15.84375 -16.21875 L 9.796875 -16.21875 L 9.796875 0 Z M 6.328125 0 "/></g></g><g style="fill:#cae8ff;fill-opacity:1;"><g transform="translate(134.524963, 240.799467)"><path style="stroke:none" d="M 2.484375 0 L 2.484375 -19.3125 L 5.96875 -19.3125 L 5.96875 0 Z M 2.484375 0 "/></g></g><g style="fill:#cae8ff;fill-opacity:1;"><g transform="translate(142.973002, 240.799467)"><path style="stroke:none" d="M 0.171875 0 L 7.90625 -19.3125 L 10.5 -19.3125 L 18.203125 0 L 14.453125 0 L 12.96875 -4.203125 L 5.453125 -4.203125 L 3.953125 0 Z M 6.625 -7.171875 L 11.78125 -7.171875 L 9.21875 -14.21875 Z M 6.625 -7.171875 "/></g></g><g style="fill:#cae8ff;fill-opacity:1;"><g transform="translate(161.331773, 240.799467)"><path style="stroke:none" d="M 8.015625 0.21875 C 7.160156 0.21875 6.320312 0.0976562 5.5 -0.140625 C 4.6875 -0.378906 3.941406 -0.734375 3.265625 -1.203125 C 2.585938 -1.671875 2.015625 -2.257812 1.546875 -2.96875 C 1.078125 -3.675781 0.765625 -4.503906 0.609375 -5.453125 L 4.0625 -6.328125 C 4.144531 -5.523438 4.375 -4.867188 4.75 -4.359375 C 5.125 -3.847656 5.597656 -3.46875 6.171875 -3.21875 C 6.753906 -2.976562 7.382812 -2.859375 8.0625 -2.859375 C 8.757812 -2.859375 9.34375 -2.96875 9.8125 -3.1875 C 10.28125 -3.40625 10.632812 -3.703125 10.875 -4.078125 C 11.125 -4.453125 11.25 -4.863281 11.25 -5.3125 C 11.25 -5.820312 11.113281 -6.253906 10.84375 -6.609375 C 10.582031 -6.960938 10.234375 -7.269531 9.796875 -7.53125 C 9.359375 -7.789062 8.859375 -8.03125 8.296875 -8.25 C 7.742188 -8.476562 7.171875 -8.707031 6.578125 -8.9375 C 5.984375 -9.164062 5.40625 -9.425781 4.84375 -9.71875 C 4.289062 -10.019531 3.789062 -10.375 3.34375 -10.78125 C 2.90625 -11.1875 2.554688 -11.671875 2.296875 -12.234375 C 2.035156 -12.804688 1.90625 -13.488281 1.90625 -14.28125 C 1.90625 -15.132812 2.0625 -15.890625 2.375 -16.546875 C 2.695312 -17.210938 3.140625 -17.769531 3.703125 -18.21875 C 4.265625 -18.675781 4.90625 -19.019531 5.625 -19.25 C 6.351562 -19.488281 7.125 -19.609375 7.9375 -19.609375 C 9.125 -19.609375 10.234375 -19.335938 11.265625 -18.796875 C 12.296875 -18.253906 13.144531 -17.394531 13.8125 -16.21875 L 10.921875 -14.453125 C 10.585938 -15.109375 10.144531 -15.613281 9.59375 -15.96875 C 9.050781 -16.332031 8.457031 -16.515625 7.8125 -16.515625 C 7.351562 -16.515625 6.9375 -16.425781 6.5625 -16.25 C 6.195312 -16.082031 5.90625 -15.84375 5.6875 -15.53125 C 5.476562 -15.21875 5.375 -14.859375 5.375 -14.453125 C 5.375 -13.992188 5.503906 -13.601562 5.765625 -13.28125 C 6.035156 -12.957031 6.390625 -12.675781 6.828125 -12.4375 C 7.273438 -12.195312 7.773438 -11.96875 8.328125 -11.75 C 8.878906 -11.539062 9.453125 -11.316406 10.046875 -11.078125 C 10.640625 -10.847656 11.210938 -10.582031 11.765625 -10.28125 C 12.328125 -9.976562 12.828125 -9.617188 13.265625 -9.203125 C 13.710938 -8.796875 14.066406 -8.300781 14.328125 -7.71875 C 14.585938 -7.132812 14.71875 -6.441406 14.71875 -5.640625 C 14.71875 -4.722656 14.539062 -3.898438 14.1875 -3.171875 C 13.84375 -2.453125 13.363281 -1.835938 12.75 -1.328125 C 12.132812 -0.828125 11.421875 -0.441406 10.609375 -0.171875 C 9.796875 0.0859375 8.929688 0.21875 8.015625 0.21875 Z M 8.015625 0.21875 "/></g></g><g style="fill:#cae8ff;fill-opacity:1;"><g transform="translate(176.874532, 240.799467)"><path style="stroke:none" d=""/></g></g><g style="fill:#cae8ff;fill-opacity:1;"><g transform="translate(183.600155, 240.799467)"><path style="stroke:none" d="M 0.171875 0 L 7.90625 -19.3125 L 10.5 -19.3125 L 18.203125 0 L 14.453125 0 L 12.96875 -4.203125 L 5.453125 -4.203125 L 3.953125 0 Z M 6.625 -7.171875 L 11.78125 -7.171875 L 9.21875 -14.21875 Z M 6.625 -7.171875 "/></g></g><g style="fill:#cae8ff;fill-opacity:1;"><g transform="translate(201.958926, 240.799467)"><path style="stroke:none" d="M 10.46875 0.28125 C 9.207031 0.28125 8.070312 0.109375 7.0625 -0.234375 C 6.050781 -0.585938 5.175781 -1.070312 4.4375 -1.6875 C 3.695312 -2.3125 3.078125 -3.039062 2.578125 -3.875 C 2.085938 -4.707031 1.722656 -5.613281 1.484375 -6.59375 C 1.242188 -7.582031 1.125 -8.609375 1.125 -9.671875 C 1.125 -10.722656 1.238281 -11.738281 1.46875 -12.71875 C 1.707031 -13.707031 2.070312 -14.617188 2.5625 -15.453125 C 3.050781 -16.285156 3.664062 -17.015625 4.40625 -17.640625 C 5.144531 -18.273438 6.015625 -18.765625 7.015625 -19.109375 C 8.023438 -19.460938 9.171875 -19.640625 10.453125 -19.640625 C 11.710938 -19.640625 12.882812 -19.425781 13.96875 -19 C 15.050781 -18.570312 16.007812 -17.945312 16.84375 -17.125 C 17.675781 -16.300781 18.351562 -15.285156 18.875 -14.078125 L 15.796875 -12.796875 C 15.503906 -13.671875 15.085938 -14.390625 14.546875 -14.953125 C 14.015625 -15.515625 13.398438 -15.925781 12.703125 -16.1875 C 12.003906 -16.457031 11.242188 -16.59375 10.421875 -16.59375 C 9.398438 -16.59375 8.519531 -16.40625 7.78125 -16.03125 C 7.039062 -15.664062 6.429688 -15.164062 5.953125 -14.53125 C 5.484375 -13.90625 5.132812 -13.179688 4.90625 -12.359375 C 4.675781 -11.546875 4.5625 -10.691406 4.5625 -9.796875 C 4.5625 -8.847656 4.675781 -7.953125 4.90625 -7.109375 C 5.132812 -6.265625 5.488281 -5.519531 5.96875 -4.875 C 6.445312 -4.226562 7.054688 -3.722656 7.796875 -3.359375 C 8.546875 -3.003906 9.4375 -2.828125 10.46875 -2.828125 C 11.40625 -2.828125 12.253906 -3.019531 13.015625 -3.40625 C 13.785156 -3.800781 14.421875 -4.363281 14.921875 -5.09375 C 15.429688 -5.820312 15.75 -6.671875 15.875 -7.640625 L 11.484375 -7.640625 L 11.484375 -10.453125 L 19.234375 -10.453125 L 19.234375 0 L 16.484375 0 L 16.1875 -2.71875 C 15.84375 -2.113281 15.382812 -1.585938 14.8125 -1.140625 C 14.25 -0.691406 13.597656 -0.34375 12.859375 -0.09375 C 12.128906 0.15625 11.332031 0.28125 10.46875 0.28125 Z M 10.46875 0.28125 "/></g></g><g style="fill:#cae8ff;fill-opacity:1;"><g transform="translate(222.928656, 240.799467)"><path style="stroke:none" d="M 9.4375 0.28125 C 7.707031 0.28125 6.296875 -0.0390625 5.203125 -0.6875 C 4.117188 -1.332031 3.320312 -2.238281 2.8125 -3.40625 C 2.300781 -4.582031 2.046875 -5.957031 2.046875 -7.53125 L 2.046875 -19.3125 L 5.515625 -19.3125 L 5.515625 -7.9375 C 5.515625 -6.894531 5.625 -6.015625 5.84375 -5.296875 C 6.070312 -4.578125 6.46875 -4.023438 7.03125 -3.640625 C 7.601562 -3.265625 8.40625 -3.078125 9.4375 -3.078125 C 10.476562 -3.078125 11.28125 -3.265625 11.84375 -3.640625 C 12.40625 -4.023438 12.796875 -4.578125 13.015625 -5.296875 C 13.242188 -6.015625 13.359375 -6.894531 13.359375 -7.9375 L 13.359375 -19.3125 L 16.828125 -19.3125 L 16.828125 -7.671875 C 16.828125 -6.046875 16.566406 -4.640625 16.046875 -3.453125 C 15.535156 -2.265625 14.738281 -1.34375 13.65625 -0.6875 C 12.570312 -0.0390625 11.164062 0.28125 9.4375 0.28125 Z M 9.4375 0.28125 "/></g></g><g style="fill:#cae8ff;fill-opacity:1;"><g transform="translate(241.793209, 240.799467)"><path style="stroke:none" d="M 2.484375 0 L 2.484375 -19.3125 L 15.34375 -19.3125 L 15.34375 -16.140625 L 5.96875 -16.140625 L 5.96875 -11.25 L 14.703125 -11.25 L 14.703125 -8.0625 L 5.96875 -8.0625 L 5.96875 -3.28125 L 15.34375 -3.28125 L 15.34375 0 Z M 2.484375 0 "/></g></g><g style="fill:#cae8ff;fill-opacity:1;"><g transform="translate(258.812324, 240.799467)"><path style="stroke:none" d="M 6.328125 0 L 6.328125 -16.21875 L 0.28125 -16.21875 L 0.28125 -19.3125 L 15.84375 -19.3125 L 15.84375 -16.21875 L 9.796875 -16.21875 L 9.796875 0 Z M 6.328125 0 "/></g></g><g style="fill:#cae8ff;fill-opacity:1;"><g transform="translate(274.942874, 240.799467)"><path style="stroke:none" d="M 6.328125 0 L 6.328125 -16.21875 L 0.28125 -16.21875 L 0.28125 -19.3125 L 15.84375 -19.3125 L 15.84375 -16.21875 L 9.796875 -16.21875 L 9.796875 0 Z M 6.328125 0 "/></g></g><g style="fill:#cae8ff;fill-opacity:1;"><g transform="translate(291.073457, 240.799467)"><path style="stroke:none" d="M 2.484375 0 L 2.484375 -19.3125 L 5.96875 -19.3125 L 5.96875 0 Z M 2.484375 0 "/></g></g><g style="fill:#f4f6fc;fill-opacity:1;"><g transform="translate(134.902862, 258.649495)"><path style="stroke:none" d="M 2.46875 0 L 0.28125 -7.59375 L 1.40625 -7.59375 L 3.109375 -1.5 L 4.90625 -7.15625 L 5.765625 -7.15625 L 7.5625 -1.5 L 9.265625 -7.59375 L 10.40625 -7.59375 L 8.203125 0 L 7.078125 0 L 5.34375 -5.40625 L 3.59375 0 Z M 2.46875 0 "/></g></g><g style="fill:#f4f6fc;fill-opacity:1;"><g transform="translate(145.567645, 258.649495)"><path style="stroke:none" d="M 2.953125 0.09375 C 2.523438 0.09375 2.148438 0.0195312 1.828125 -0.125 C 1.503906 -0.28125 1.234375 -0.484375 1.015625 -0.734375 C 0.804688 -0.992188 0.648438 -1.285156 0.546875 -1.609375 C 0.441406 -1.941406 0.390625 -2.289062 0.390625 -2.65625 C 0.390625 -3.007812 0.441406 -3.351562 0.546875 -3.6875 C 0.648438 -4.019531 0.800781 -4.316406 1 -4.578125 C 1.207031 -4.847656 1.460938 -5.0625 1.765625 -5.21875 C 2.078125 -5.375 2.445312 -5.453125 2.875 -5.453125 C 3.226562 -5.453125 3.539062 -5.398438 3.8125 -5.296875 C 4.082031 -5.191406 4.304688 -5.050781 4.484375 -4.875 C 4.671875 -4.695312 4.816406 -4.492188 4.921875 -4.265625 C 5.035156 -4.035156 5.117188 -3.789062 5.171875 -3.53125 C 5.222656 -3.28125 5.25 -3.035156 5.25 -2.796875 C 5.25 -2.710938 5.242188 -2.625 5.234375 -2.53125 C 5.222656 -2.445312 5.210938 -2.382812 5.203125 -2.34375 L 1.5 -2.34375 C 1.519531 -2.0625 1.582031 -1.804688 1.6875 -1.578125 C 1.800781 -1.347656 1.960938 -1.164062 2.171875 -1.03125 C 2.378906 -0.90625 2.640625 -0.84375 2.953125 -0.84375 C 3.234375 -0.84375 3.488281 -0.878906 3.71875 -0.953125 C 3.945312 -1.035156 4.160156 -1.1875 4.359375 -1.40625 L 5.078125 -0.8125 C 4.785156 -0.5 4.46875 -0.269531 4.125 -0.125 C 3.78125 0.0195312 3.390625 0.09375 2.953125 0.09375 Z M 1.5 -3.125 L 4.234375 -3.125 C 4.222656 -3.40625 4.164062 -3.65625 4.0625 -3.875 C 3.957031 -4.09375 3.804688 -4.265625 3.609375 -4.390625 C 3.410156 -4.523438 3.160156 -4.59375 2.859375 -4.59375 C 2.566406 -4.59375 2.320312 -4.523438 2.125 -4.390625 C 1.9375 -4.253906 1.789062 -4.078125 1.6875 -3.859375 C 1.582031 -3.640625 1.519531 -3.394531 1.5 -3.125 Z M 1.5 -3.125 "/></g></g><g style="fill:#f4f6fc;fill-opacity:1;"><g transform="translate(151.208655, 258.649495)"><path style="stroke:none" d="M 3.515625 0.109375 C 3.179688 0.109375 2.875 0.046875 2.59375 -0.078125 C 2.320312 -0.210938 2.097656 -0.398438 1.921875 -0.640625 L 1.921875 0 L 0.859375 0 L 0.859375 -7.59375 L 1.921875 -7.59375 L 1.921875 -4.734375 C 2.097656 -4.972656 2.320312 -5.15625 2.59375 -5.28125 C 2.863281 -5.414062 3.164062 -5.484375 3.5 -5.484375 C 3.863281 -5.484375 4.179688 -5.40625 4.453125 -5.25 C 4.734375 -5.101562 4.96875 -4.898438 5.15625 -4.640625 C 5.351562 -4.390625 5.5 -4.09375 5.59375 -3.75 C 5.6875 -3.414062 5.734375 -3.0625 5.734375 -2.6875 C 5.734375 -2.3125 5.6875 -1.953125 5.59375 -1.609375 C 5.5 -1.273438 5.359375 -0.976562 5.171875 -0.71875 C 4.984375 -0.457031 4.75 -0.253906 4.46875 -0.109375 C 4.195312 0.0351562 3.878906 0.109375 3.515625 0.109375 Z M 3.25 -0.828125 C 3.5 -0.828125 3.710938 -0.875 3.890625 -0.96875 C 4.078125 -1.070312 4.226562 -1.207031 4.34375 -1.375 C 4.46875 -1.550781 4.554688 -1.75 4.609375 -1.96875 C 4.671875 -2.195312 4.703125 -2.4375 4.703125 -2.6875 C 4.703125 -2.9375 4.671875 -3.171875 4.609375 -3.390625 C 4.554688 -3.617188 4.46875 -3.820312 4.34375 -4 C 4.226562 -4.175781 4.078125 -4.3125 3.890625 -4.40625 C 3.710938 -4.507812 3.5 -4.5625 3.25 -4.5625 C 3.007812 -4.5625 2.796875 -4.507812 2.609375 -4.40625 C 2.429688 -4.3125 2.285156 -4.175781 2.171875 -4 C 2.054688 -3.820312 1.96875 -3.617188 1.90625 -3.390625 C 1.851562 -3.171875 1.828125 -2.9375 1.828125 -2.6875 C 1.828125 -2.4375 1.851562 -2.195312 1.90625 -1.96875 C 1.96875 -1.75 2.054688 -1.550781 2.171875 -1.375 C 2.285156 -1.207031 2.429688 -1.070312 2.609375 -0.96875 C 2.796875 -0.875 3.007812 -0.828125 3.25 -0.828125 Z M 3.25 -0.828125 "/></g></g><g style="fill:#f4f6fc;fill-opacity:1;"><g transform="translate(157.381025, 258.649495)"><path style="stroke:none" d=""/></g></g><g style="fill:#f4f6fc;fill-opacity:1;"><g transform="translate(160.161276, 258.649495)"><path style="stroke:none" d="M 6.96875 -0.28125 L 6.25 0.34375 L 5.234375 -0.84375 C 4.929688 -0.539062 4.582031 -0.300781 4.1875 -0.125 C 3.789062 0.0390625 3.359375 0.125 2.890625 0.125 C 2.566406 0.125 2.265625 0.0820312 1.984375 0 C 1.703125 -0.0703125 1.453125 -0.179688 1.234375 -0.328125 C 1.023438 -0.484375 0.859375 -0.675781 0.734375 -0.90625 C 0.617188 -1.132812 0.5625 -1.394531 0.5625 -1.6875 C 0.5625 -1.976562 0.613281 -2.242188 0.71875 -2.484375 C 0.820312 -2.722656 0.957031 -2.9375 1.125 -3.125 C 1.300781 -3.3125 1.492188 -3.484375 1.703125 -3.640625 C 1.921875 -3.804688 2.144531 -3.960938 2.375 -4.109375 C 2.289062 -4.210938 2.191406 -4.332031 2.078125 -4.46875 C 1.960938 -4.601562 1.851562 -4.75 1.75 -4.90625 C 1.65625 -5.070312 1.578125 -5.242188 1.515625 -5.421875 C 1.453125 -5.597656 1.421875 -5.78125 1.421875 -5.96875 C 1.421875 -6.238281 1.472656 -6.476562 1.578125 -6.6875 C 1.691406 -6.894531 1.835938 -7.070312 2.015625 -7.21875 C 2.203125 -7.375 2.414062 -7.488281 2.65625 -7.5625 C 2.894531 -7.644531 3.140625 -7.6875 3.390625 -7.6875 C 3.640625 -7.6875 3.875 -7.640625 4.09375 -7.546875 C 4.320312 -7.460938 4.519531 -7.34375 4.6875 -7.1875 C 4.863281 -7.039062 5 -6.863281 5.09375 -6.65625 C 5.1875 -6.445312 5.234375 -6.21875 5.234375 -5.96875 C 5.234375 -5.664062 5.164062 -5.390625 5.03125 -5.140625 C 4.894531 -4.898438 4.71875 -4.679688 4.5 -4.484375 C 4.28125 -4.285156 4.039062 -4.101562 3.78125 -3.9375 L 5.140625 -2.390625 C 5.222656 -2.585938 5.285156 -2.800781 5.328125 -3.03125 C 5.378906 -3.257812 5.410156 -3.492188 5.421875 -3.734375 L 6.40625 -3.625 C 6.375 -3.25 6.304688 -2.890625 6.203125 -2.546875 C 6.109375 -2.210938 5.976562 -1.898438 5.8125 -1.609375 Z M 2.390625 -5.953125 C 2.390625 -5.804688 2.425781 -5.648438 2.5 -5.484375 C 2.582031 -5.316406 2.679688 -5.148438 2.796875 -4.984375 C 2.921875 -4.828125 3.035156 -4.6875 3.140625 -4.5625 C 3.359375 -4.695312 3.554688 -4.832031 3.734375 -4.96875 C 3.910156 -5.113281 4.050781 -5.265625 4.15625 -5.421875 C 4.257812 -5.585938 4.3125 -5.769531 4.3125 -5.96875 C 4.3125 -6.125 4.269531 -6.269531 4.1875 -6.40625 C 4.113281 -6.539062 4.003906 -6.644531 3.859375 -6.71875 C 3.722656 -6.800781 3.566406 -6.84375 3.390625 -6.84375 C 3.222656 -6.84375 3.0625 -6.804688 2.90625 -6.734375 C 2.757812 -6.671875 2.632812 -6.570312 2.53125 -6.4375 C 2.4375 -6.3125 2.390625 -6.148438 2.390625 -5.953125 Z M 2.875 -0.78125 C 3.25 -0.78125 3.582031 -0.847656 3.875 -0.984375 C 4.164062 -1.117188 4.414062 -1.304688 4.625 -1.546875 L 3 -3.4375 C 2.738281 -3.269531 2.492188 -3.097656 2.265625 -2.921875 C 2.046875 -2.753906 1.867188 -2.566406 1.734375 -2.359375 C 1.597656 -2.160156 1.53125 -1.9375 1.53125 -1.6875 C 1.53125 -1.476562 1.585938 -1.304688 1.703125 -1.171875 C 1.828125 -1.035156 1.992188 -0.9375 2.203125 -0.875 C 2.410156 -0.8125 2.632812 -0.78125 2.875 -0.78125 Z M 2.875 -0.78125 "/></g></g><g style="fill:#f4f6fc;fill-opacity:1;"><g transform="translate(167.562753, 258.649495)"><path style="stroke:none" d=""/></g></g><g style="fill:#f4f6fc;fill-opacity:1;"><g transform="translate(170.343003, 258.649495)"><path style="stroke:none" d="M 3.109375 0.09375 C 2.785156 0.09375 2.46875 0.0507812 2.15625 -0.03125 C 1.851562 -0.125 1.578125 -0.257812 1.328125 -0.4375 C 1.078125 -0.613281 0.863281 -0.832031 0.6875 -1.09375 C 0.519531 -1.363281 0.40625 -1.675781 0.34375 -2.03125 L 1.40625 -2.328125 C 1.445312 -1.992188 1.546875 -1.71875 1.703125 -1.5 C 1.867188 -1.289062 2.070312 -1.132812 2.3125 -1.03125 C 2.5625 -0.9375 2.828125 -0.890625 3.109375 -0.890625 C 3.546875 -0.890625 3.890625 -0.988281 4.140625 -1.1875 C 4.390625 -1.394531 4.515625 -1.6875 4.515625 -2.0625 C 4.515625 -2.28125 4.460938 -2.46875 4.359375 -2.625 C 4.265625 -2.789062 4.128906 -2.929688 3.953125 -3.046875 C 3.773438 -3.160156 3.578125 -3.265625 3.359375 -3.359375 C 3.140625 -3.453125 2.914062 -3.546875 2.6875 -3.640625 C 2.457031 -3.742188 2.234375 -3.851562 2.015625 -3.96875 C 1.796875 -4.082031 1.597656 -4.21875 1.421875 -4.375 C 1.253906 -4.53125 1.117188 -4.710938 1.015625 -4.921875 C 0.910156 -5.140625 0.859375 -5.398438 0.859375 -5.703125 C 0.859375 -6.015625 0.914062 -6.289062 1.03125 -6.53125 C 1.144531 -6.78125 1.300781 -6.988281 1.5 -7.15625 C 1.707031 -7.332031 1.941406 -7.46875 2.203125 -7.5625 C 2.472656 -7.65625 2.757812 -7.703125 3.0625 -7.703125 C 3.519531 -7.703125 3.9375 -7.597656 4.3125 -7.390625 C 4.695312 -7.191406 5.015625 -6.878906 5.265625 -6.453125 L 4.390625 -5.890625 C 4.242188 -6.171875 4.050781 -6.378906 3.8125 -6.515625 C 3.570312 -6.660156 3.3125 -6.734375 3.03125 -6.734375 C 2.832031 -6.734375 2.648438 -6.691406 2.484375 -6.609375 C 2.316406 -6.535156 2.179688 -6.425781 2.078125 -6.28125 C 1.984375 -6.132812 1.9375 -5.960938 1.9375 -5.765625 C 1.9375 -5.566406 1.984375 -5.394531 2.078125 -5.25 C 2.179688 -5.113281 2.320312 -4.992188 2.5 -4.890625 C 2.675781 -4.785156 2.875 -4.6875 3.09375 -4.59375 C 3.3125 -4.5 3.535156 -4.398438 3.765625 -4.296875 C 3.992188 -4.203125 4.21875 -4.09375 4.4375 -3.96875 C 4.65625 -3.84375 4.851562 -3.695312 5.03125 -3.53125 C 5.207031 -3.375 5.34375 -3.179688 5.4375 -2.953125 C 5.539062 -2.722656 5.59375 -2.457031 5.59375 -2.15625 C 5.59375 -1.8125 5.53125 -1.5 5.40625 -1.21875 C 5.28125 -0.945312 5.101562 -0.710938 4.875 -0.515625 C 4.644531 -0.316406 4.378906 -0.164062 4.078125 -0.0625 C 3.773438 0.0390625 3.453125 0.09375 3.109375 0.09375 Z M 3.109375 0.09375 "/></g></g><g style="fill:#f4f6fc;fill-opacity:1;"><g transform="translate(176.370457, 258.649495)"><path style="stroke:none" d="M 1.0625 0 L 1.0625 -7.59375 L 6.046875 -7.59375 L 6.046875 -6.609375 L 2.15625 -6.609375 L 2.15625 -4.28125 L 5.640625 -4.28125 L 5.640625 -3.3125 L 2.15625 -3.3125 L 2.15625 -1.015625 L 6.046875 -1.015625 L 6.046875 0 Z M 1.0625 0 "/></g></g><g style="fill:#f4f6fc;fill-opacity:1;"><g transform="translate(183.036618, 258.649495)"><path style="stroke:none" d="M 4.078125 0.109375 C 3.597656 0.109375 3.164062 0.0390625 2.78125 -0.09375 C 2.40625 -0.226562 2.078125 -0.414062 1.796875 -0.65625 C 1.523438 -0.90625 1.296875 -1.191406 1.109375 -1.515625 C 0.921875 -1.847656 0.78125 -2.207031 0.6875 -2.59375 C 0.601562 -2.976562 0.5625 -3.378906 0.5625 -3.796875 C 0.5625 -4.210938 0.601562 -4.613281 0.6875 -5 C 0.78125 -5.382812 0.921875 -5.738281 1.109375 -6.0625 C 1.296875 -6.394531 1.523438 -6.679688 1.796875 -6.921875 C 2.078125 -7.171875 2.40625 -7.363281 2.78125 -7.5 C 3.164062 -7.632812 3.597656 -7.703125 4.078125 -7.703125 C 4.554688 -7.703125 4.984375 -7.632812 5.359375 -7.5 C 5.742188 -7.363281 6.078125 -7.171875 6.359375 -6.921875 C 6.640625 -6.679688 6.875 -6.394531 7.0625 -6.0625 C 7.25 -5.738281 7.382812 -5.382812 7.46875 -5 C 7.5625 -4.613281 7.609375 -4.210938 7.609375 -3.796875 C 7.609375 -3.378906 7.5625 -2.976562 7.46875 -2.59375 C 7.382812 -2.207031 7.25 -1.847656 7.0625 -1.515625 C 6.875 -1.191406 6.640625 -0.90625 6.359375 -0.65625 C 6.078125 -0.414062 5.742188 -0.226562 5.359375 -0.09375 C 4.984375 0.0390625 4.554688 0.109375 4.078125 0.109375 Z M 4.078125 -0.875 C 4.515625 -0.875 4.882812 -0.953125 5.1875 -1.109375 C 5.5 -1.265625 5.75 -1.476562 5.9375 -1.75 C 6.132812 -2.03125 6.273438 -2.34375 6.359375 -2.6875 C 6.453125 -3.039062 6.5 -3.410156 6.5 -3.796875 C 6.5 -4.179688 6.453125 -4.546875 6.359375 -4.890625 C 6.273438 -5.242188 6.132812 -5.554688 5.9375 -5.828125 C 5.75 -6.097656 5.5 -6.3125 5.1875 -6.46875 C 4.882812 -6.632812 4.515625 -6.71875 4.078125 -6.71875 C 3.648438 -6.71875 3.28125 -6.632812 2.96875 -6.46875 C 2.664062 -6.3125 2.414062 -6.097656 2.21875 -5.828125 C 2.03125 -5.554688 1.890625 -5.242188 1.796875 -4.890625 C 1.710938 -4.546875 1.671875 -4.179688 1.671875 -3.796875 C 1.671875 -3.410156 1.710938 -3.039062 1.796875 -2.6875 C 1.890625 -2.34375 2.03125 -2.03125 2.21875 -1.75 C 2.414062 -1.476562 2.664062 -1.265625 2.96875 -1.109375 C 3.28125 -0.953125 3.648438 -0.875 4.078125 -0.875 Z M 4.078125 -0.875 "/></g></g><g style="fill:#f4f6fc;fill-opacity:1;"><g transform="translate(191.200248, 258.649495)"><path style="stroke:none" d=""/></g></g><g style="fill:#f4f6fc;fill-opacity:1;"><g transform="translate(193.980499, 258.649495)"><path style="stroke:none" d="M 3.109375 0.09375 C 2.785156 0.09375 2.46875 0.0507812 2.15625 -0.03125 C 1.851562 -0.125 1.578125 -0.257812 1.328125 -0.4375 C 1.078125 -0.613281 0.863281 -0.832031 0.6875 -1.09375 C 0.519531 -1.363281 0.40625 -1.675781 0.34375 -2.03125 L 1.40625 -2.328125 C 1.445312 -1.992188 1.546875 -1.71875 1.703125 -1.5 C 1.867188 -1.289062 2.070312 -1.132812 2.3125 -1.03125 C 2.5625 -0.9375 2.828125 -0.890625 3.109375 -0.890625 C 3.546875 -0.890625 3.890625 -0.988281 4.140625 -1.1875 C 4.390625 -1.394531 4.515625 -1.6875 4.515625 -2.0625 C 4.515625 -2.28125 4.460938 -2.46875 4.359375 -2.625 C 4.265625 -2.789062 4.128906 -2.929688 3.953125 -3.046875 C 3.773438 -3.160156 3.578125 -3.265625 3.359375 -3.359375 C 3.140625 -3.453125 2.914062 -3.546875 2.6875 -3.640625 C 2.457031 -3.742188 2.234375 -3.851562 2.015625 -3.96875 C 1.796875 -4.082031 1.597656 -4.21875 1.421875 -4.375 C 1.253906 -4.53125 1.117188 -4.710938 1.015625 -4.921875 C 0.910156 -5.140625 0.859375 -5.398438 0.859375 -5.703125 C 0.859375 -6.015625 0.914062 -6.289062 1.03125 -6.53125 C 1.144531 -6.78125 1.300781 -6.988281 1.5 -7.15625 C 1.707031 -7.332031 1.941406 -7.46875 2.203125 -7.5625 C 2.472656 -7.65625 2.757812 -7.703125 3.0625 -7.703125 C 3.519531 -7.703125 3.9375 -7.597656 4.3125 -7.390625 C 4.695312 -7.191406 5.015625 -6.878906 5.265625 -6.453125 L 4.390625 -5.890625 C 4.242188 -6.171875 4.050781 -6.378906 3.8125 -6.515625 C 3.570312 -6.660156 3.3125 -6.734375 3.03125 -6.734375 C 2.832031 -6.734375 2.648438 -6.691406 2.484375 -6.609375 C 2.316406 -6.535156 2.179688 -6.425781 2.078125 -6.28125 C 1.984375 -6.132812 1.9375 -5.960938 1.9375 -5.765625 C 1.9375 -5.566406 1.984375 -5.394531 2.078125 -5.25 C 2.179688 -5.113281 2.320312 -4.992188 2.5 -4.890625 C 2.675781 -4.785156 2.875 -4.6875 3.09375 -4.59375 C 3.3125 -4.5 3.535156 -4.398438 3.765625 -4.296875 C 3.992188 -4.203125 4.21875 -4.09375 4.4375 -3.96875 C 4.65625 -3.84375 4.851562 -3.695312 5.03125 -3.53125 C 5.207031 -3.375 5.34375 -3.179688 5.4375 -2.953125 C 5.539062 -2.722656 5.59375 -2.457031 5.59375 -2.15625 C 5.59375 -1.8125 5.53125 -1.5 5.40625 -1.21875 C 5.28125 -0.945312 5.101562 -0.710938 4.875 -0.515625 C 4.644531 -0.316406 4.378906 -0.164062 4.078125 -0.0625 C 3.773438 0.0390625 3.453125 0.09375 3.109375 0.09375 Z M 3.109375 0.09375 "/></g></g><g style="fill:#f4f6fc;fill-opacity:1;"><g transform="translate(200.007953, 258.649495)"><path style="stroke:none" d="M 2.53125 0.109375 C 2.03125 0.109375 1.65625 -0.03125 1.40625 -0.3125 C 1.164062 -0.59375 1.046875 -0.972656 1.046875 -1.453125 L 1.046875 -4.5 L 0.1875 -4.5 L 0.1875 -5.359375 L 1.0625 -5.359375 L 1.0625 -6.640625 L 2.078125 -7.46875 L 2.078125 -5.359375 L 3.4375 -5.359375 L 3.4375 -4.5 L 2.078125 -4.5 L 2.078125 -1.5625 C 2.078125 -1.28125 2.140625 -1.078125 2.265625 -0.953125 C 2.390625 -0.835938 2.546875 -0.78125 2.734375 -0.78125 C 2.847656 -0.78125 2.957031 -0.796875 3.0625 -0.828125 C 3.175781 -0.867188 3.28125 -0.910156 3.375 -0.953125 L 3.375 -0.03125 C 3.289062 0 3.171875 0.03125 3.015625 0.0625 C 2.867188 0.09375 2.707031 0.109375 2.53125 0.109375 Z M 2.53125 0.109375 "/></g></g><g style="fill:#f4f6fc;fill-opacity:1;"><g transform="translate(203.824088, 258.649495)"><path style="stroke:none" d="M 0.84375 0 L 0.84375 -5.359375 L 1.875 -5.359375 L 1.875 -4.4375 C 1.957031 -4.65625 2.078125 -4.84375 2.234375 -5 C 2.390625 -5.15625 2.566406 -5.273438 2.765625 -5.359375 C 2.960938 -5.441406 3.171875 -5.484375 3.390625 -5.484375 C 3.566406 -5.484375 3.734375 -5.453125 3.890625 -5.390625 C 4.054688 -5.335938 4.191406 -5.257812 4.296875 -5.15625 L 3.84375 -4.28125 C 3.664062 -4.40625 3.457031 -4.46875 3.21875 -4.46875 C 2.96875 -4.46875 2.738281 -4.394531 2.53125 -4.25 C 2.320312 -4.101562 2.15625 -3.882812 2.03125 -3.59375 C 1.914062 -3.300781 1.859375 -2.929688 1.859375 -2.484375 L 1.859375 0 Z M 0.84375 0 "/></g></g><g style="fill:#f4f6fc;fill-opacity:1;"><g transform="translate(208.144747, 258.649495)"><path style="stroke:none" d="M 2.203125 0.109375 C 1.847656 0.109375 1.53125 0.0390625 1.25 -0.09375 C 0.976562 -0.226562 0.757812 -0.414062 0.59375 -0.65625 C 0.4375 -0.90625 0.359375 -1.207031 0.359375 -1.5625 C 0.359375 -1.9375 0.445312 -2.238281 0.625 -2.46875 C 0.8125 -2.695312 1.070312 -2.863281 1.40625 -2.96875 C 1.75 -3.070312 2.148438 -3.125 2.609375 -3.125 L 3.921875 -3.125 C 3.921875 -3.414062 3.878906 -3.664062 3.796875 -3.875 C 3.710938 -4.09375 3.582031 -4.265625 3.40625 -4.390625 C 3.226562 -4.515625 3 -4.578125 2.71875 -4.578125 C 2.488281 -4.578125 2.285156 -4.535156 2.109375 -4.453125 C 1.929688 -4.378906 1.78125 -4.28125 1.65625 -4.15625 C 1.53125 -4.039062 1.425781 -3.914062 1.34375 -3.78125 L 0.5625 -4.359375 C 0.8125 -4.703125 1.109375 -4.972656 1.453125 -5.171875 C 1.796875 -5.378906 2.210938 -5.484375 2.703125 -5.484375 C 3.171875 -5.484375 3.566406 -5.390625 3.890625 -5.203125 C 4.222656 -5.015625 4.472656 -4.753906 4.640625 -4.421875 C 4.816406 -4.097656 4.90625 -3.71875 4.90625 -3.28125 L 4.90625 0 L 4.03125 0 L 3.984375 -0.90625 C 3.765625 -0.539062 3.5 -0.28125 3.1875 -0.125 C 2.875 0.03125 2.546875 0.109375 2.203125 0.109375 Z M 2.328125 -0.78125 C 2.566406 -0.78125 2.78125 -0.820312 2.96875 -0.90625 C 3.164062 -1 3.332031 -1.125 3.46875 -1.28125 C 3.613281 -1.4375 3.722656 -1.609375 3.796875 -1.796875 C 3.878906 -1.984375 3.921875 -2.171875 3.921875 -2.359375 L 2.6875 -2.359375 C 2.269531 -2.359375 1.953125 -2.285156 1.734375 -2.140625 C 1.523438 -2.003906 1.421875 -1.800781 1.421875 -1.53125 C 1.421875 -1.28125 1.503906 -1.09375 1.671875 -0.96875 C 1.847656 -0.84375 2.066406 -0.78125 2.328125 -0.78125 Z M 2.328125 -0.78125 "/></g></g><g style="fill:#f4f6fc;fill-opacity:1;"><g transform="translate(213.737452, 258.649495)"><path style="stroke:none" d="M 2.53125 0.109375 C 2.03125 0.109375 1.65625 -0.03125 1.40625 -0.3125 C 1.164062 -0.59375 1.046875 -0.972656 1.046875 -1.453125 L 1.046875 -4.5 L 0.1875 -4.5 L 0.1875 -5.359375 L 1.0625 -5.359375 L 1.0625 -6.640625 L 2.078125 -7.46875 L 2.078125 -5.359375 L 3.4375 -5.359375 L 3.4375 -4.5 L 2.078125 -4.5 L 2.078125 -1.5625 C 2.078125 -1.28125 2.140625 -1.078125 2.265625 -0.953125 C 2.390625 -0.835938 2.546875 -0.78125 2.734375 -0.78125 C 2.847656 -0.78125 2.957031 -0.796875 3.0625 -0.828125 C 3.175781 -0.867188 3.28125 -0.910156 3.375 -0.953125 L 3.375 -0.03125 C 3.289062 0 3.171875 0.03125 3.015625 0.0625 C 2.867188 0.09375 2.707031 0.109375 2.53125 0.109375 Z M 2.53125 0.109375 "/></g></g><g style="fill:#f4f6fc;fill-opacity:1;"><g transform="translate(217.553587, 258.649495)"><path style="stroke:none" d="M 2.953125 0.09375 C 2.523438 0.09375 2.148438 0.0195312 1.828125 -0.125 C 1.503906 -0.28125 1.234375 -0.484375 1.015625 -0.734375 C 0.804688 -0.992188 0.648438 -1.285156 0.546875 -1.609375 C 0.441406 -1.941406 0.390625 -2.289062 0.390625 -2.65625 C 0.390625 -3.007812 0.441406 -3.351562 0.546875 -3.6875 C 0.648438 -4.019531 0.800781 -4.316406 1 -4.578125 C 1.207031 -4.847656 1.460938 -5.0625 1.765625 -5.21875 C 2.078125 -5.375 2.445312 -5.453125 2.875 -5.453125 C 3.226562 -5.453125 3.539062 -5.398438 3.8125 -5.296875 C 4.082031 -5.191406 4.304688 -5.050781 4.484375 -4.875 C 4.671875 -4.695312 4.816406 -4.492188 4.921875 -4.265625 C 5.035156 -4.035156 5.117188 -3.789062 5.171875 -3.53125 C 5.222656 -3.28125 5.25 -3.035156 5.25 -2.796875 C 5.25 -2.710938 5.242188 -2.625 5.234375 -2.53125 C 5.222656 -2.445312 5.210938 -2.382812 5.203125 -2.34375 L 1.5 -2.34375 C 1.519531 -2.0625 1.582031 -1.804688 1.6875 -1.578125 C 1.800781 -1.347656 1.960938 -1.164062 2.171875 -1.03125 C 2.378906 -0.90625 2.640625 -0.84375 2.953125 -0.84375 C 3.234375 -0.84375 3.488281 -0.878906 3.71875 -0.953125 C 3.945312 -1.035156 4.160156 -1.1875 4.359375 -1.40625 L 5.078125 -0.8125 C 4.785156 -0.5 4.46875 -0.269531 4.125 -0.125 C 3.78125 0.0195312 3.390625 0.09375 2.953125 0.09375 Z M 1.5 -3.125 L 4.234375 -3.125 C 4.222656 -3.40625 4.164062 -3.65625 4.0625 -3.875 C 3.957031 -4.09375 3.804688 -4.265625 3.609375 -4.390625 C 3.410156 -4.523438 3.160156 -4.59375 2.859375 -4.59375 C 2.566406 -4.59375 2.320312 -4.523438 2.125 -4.390625 C 1.9375 -4.253906 1.789062 -4.078125 1.6875 -3.859375 C 1.582031 -3.640625 1.519531 -3.394531 1.5 -3.125 Z M 1.5 -3.125 "/></g></g><g style="fill:#f4f6fc;fill-opacity:1;"><g transform="translate(223.194597, 258.649495)"><path style="stroke:none" d="M 3.015625 -0.765625 C 3.222656 -0.734375 3.429688 -0.695312 3.640625 -0.65625 C 3.847656 -0.625 4.039062 -0.570312 4.21875 -0.5 C 4.40625 -0.4375 4.570312 -0.347656 4.71875 -0.234375 C 4.863281 -0.128906 4.972656 0.00390625 5.046875 0.171875 C 5.128906 0.335938 5.171875 0.546875 5.171875 0.796875 C 5.171875 1.078125 5.109375 1.320312 4.984375 1.53125 C 4.867188 1.75 4.707031 1.925781 4.5 2.0625 C 4.289062 2.207031 4.050781 2.316406 3.78125 2.390625 C 3.507812 2.460938 3.222656 2.5 2.921875 2.5 C 2.429688 2.5 2.003906 2.414062 1.640625 2.25 C 1.273438 2.09375 0.992188 1.867188 0.796875 1.578125 C 0.609375 1.296875 0.515625 0.984375 0.515625 0.640625 C 0.515625 0.585938 0.515625 0.546875 0.515625 0.515625 C 0.523438 0.484375 0.53125 0.445312 0.53125 0.40625 L 1.203125 -0.234375 C 1.023438 -0.335938 0.878906 -0.472656 0.765625 -0.640625 C 0.648438 -0.816406 0.59375 -1.039062 0.59375 -1.3125 C 0.59375 -1.507812 0.628906 -1.691406 0.703125 -1.859375 C 0.773438 -2.023438 0.890625 -2.171875 1.046875 -2.296875 C 0.898438 -2.460938 0.785156 -2.648438 0.703125 -2.859375 C 0.628906 -3.078125 0.59375 -3.304688 0.59375 -3.546875 C 0.59375 -3.828125 0.644531 -4.082031 0.75 -4.3125 C 0.863281 -4.550781 1.015625 -4.753906 1.203125 -4.921875 C 1.398438 -5.097656 1.625 -5.226562 1.875 -5.3125 C 2.125 -5.40625 2.394531 -5.453125 2.6875 -5.453125 C 2.945312 -5.453125 3.191406 -5.414062 3.421875 -5.34375 C 3.648438 -5.28125 3.851562 -5.175781 4.03125 -5.03125 L 4.828125 -5.75 L 5.390625 -5.046875 L 4.578125 -4.40625 C 4.710938 -4.132812 4.78125 -3.832031 4.78125 -3.5 C 4.78125 -3.207031 4.726562 -2.941406 4.625 -2.703125 C 4.519531 -2.472656 4.367188 -2.273438 4.171875 -2.109375 C 3.984375 -1.941406 3.765625 -1.8125 3.515625 -1.71875 C 3.265625 -1.632812 3 -1.59375 2.71875 -1.59375 C 2.34375 -1.59375 2.003906 -1.664062 1.703125 -1.8125 C 1.566406 -1.726562 1.5 -1.613281 1.5 -1.46875 C 1.5 -1.300781 1.566406 -1.171875 1.703125 -1.078125 C 1.835938 -0.992188 2.019531 -0.929688 2.25 -0.890625 C 2.476562 -0.847656 2.734375 -0.804688 3.015625 -0.765625 Z M 2.703125 -4.640625 C 2.484375 -4.640625 2.296875 -4.585938 2.140625 -4.484375 C 1.984375 -4.390625 1.863281 -4.257812 1.78125 -4.09375 C 1.695312 -3.925781 1.65625 -3.742188 1.65625 -3.546875 C 1.65625 -3.222656 1.75 -2.957031 1.9375 -2.75 C 2.125 -2.550781 2.378906 -2.453125 2.703125 -2.453125 C 3.035156 -2.453125 3.289062 -2.550781 3.46875 -2.75 C 3.65625 -2.957031 3.75 -3.222656 3.75 -3.546875 C 3.75 -3.742188 3.707031 -3.925781 3.625 -4.09375 C 3.539062 -4.257812 3.421875 -4.390625 3.265625 -4.484375 C 3.109375 -4.585938 2.921875 -4.640625 2.703125 -4.640625 Z M 2.953125 1.640625 C 3.191406 1.640625 3.40625 1.609375 3.59375 1.546875 C 3.78125 1.492188 3.929688 1.410156 4.046875 1.296875 C 4.160156 1.191406 4.21875 1.054688 4.21875 0.890625 C 4.21875 0.753906 4.175781 0.644531 4.09375 0.5625 C 4.019531 0.476562 3.914062 0.414062 3.78125 0.375 C 3.644531 0.332031 3.484375 0.296875 3.296875 0.265625 C 3.109375 0.234375 2.90625 0.203125 2.6875 0.171875 C 2.550781 0.148438 2.414062 0.128906 2.28125 0.109375 C 2.144531 0.0859375 2.007812 0.0625 1.875 0.03125 L 1.421875 0.65625 C 1.429688 0.84375 1.5 1.007812 1.625 1.15625 C 1.757812 1.300781 1.9375 1.414062 2.15625 1.5 C 2.382812 1.59375 2.648438 1.640625 2.953125 1.640625 Z M 2.953125 1.640625 "/></g></g><g style="fill:#f4f6fc;fill-opacity:1;"><g transform="translate(228.755097, 258.649495)"><path style="stroke:none" d="M 0.8125 -6.46875 L 0.8125 -7.59375 L 1.921875 -7.59375 L 1.921875 -6.46875 Z M 0.84375 0 L 0.84375 -5.359375 L 1.890625 -5.359375 L 1.890625 0 Z M 0.84375 0 "/></g></g><g style="fill:#f4f6fc;fill-opacity:1;"><g transform="translate(231.487042, 258.649495)"><path style="stroke:none" d="M 2.390625 0.109375 C 2.035156 0.109375 1.710938 0.046875 1.421875 -0.078125 C 1.140625 -0.210938 0.898438 -0.382812 0.703125 -0.59375 C 0.503906 -0.8125 0.363281 -1.050781 0.28125 -1.3125 L 1.125 -1.703125 C 1.175781 -1.546875 1.253906 -1.394531 1.359375 -1.25 C 1.460938 -1.101562 1.597656 -0.984375 1.765625 -0.890625 C 1.929688 -0.796875 2.132812 -0.75 2.375 -0.75 C 2.675781 -0.75 2.910156 -0.820312 3.078125 -0.96875 C 3.242188 -1.113281 3.328125 -1.296875 3.328125 -1.515625 C 3.328125 -1.671875 3.285156 -1.796875 3.203125 -1.890625 C 3.128906 -1.984375 3.023438 -2.0625 2.890625 -2.125 C 2.765625 -2.195312 2.617188 -2.257812 2.453125 -2.3125 C 2.296875 -2.363281 2.128906 -2.414062 1.953125 -2.46875 C 1.773438 -2.519531 1.601562 -2.578125 1.4375 -2.640625 C 1.269531 -2.710938 1.117188 -2.800781 0.984375 -2.90625 C 0.859375 -3.019531 0.753906 -3.15625 0.671875 -3.3125 C 0.597656 -3.476562 0.5625 -3.675781 0.5625 -3.90625 C 0.5625 -4.164062 0.609375 -4.390625 0.703125 -4.578125 C 0.804688 -4.773438 0.941406 -4.941406 1.109375 -5.078125 C 1.285156 -5.210938 1.484375 -5.3125 1.703125 -5.375 C 1.921875 -5.445312 2.148438 -5.484375 2.390625 -5.484375 C 2.828125 -5.484375 3.207031 -5.378906 3.53125 -5.171875 C 3.851562 -4.972656 4.101562 -4.703125 4.28125 -4.359375 L 3.5 -3.921875 C 3.394531 -4.128906 3.25 -4.300781 3.0625 -4.4375 C 2.882812 -4.582031 2.648438 -4.65625 2.359375 -4.65625 C 2.109375 -4.65625 1.90625 -4.59375 1.75 -4.46875 C 1.601562 -4.351562 1.53125 -4.210938 1.53125 -4.046875 C 1.53125 -3.890625 1.582031 -3.765625 1.6875 -3.671875 C 1.789062 -3.585938 1.925781 -3.507812 2.09375 -3.4375 C 2.257812 -3.375 2.441406 -3.3125 2.640625 -3.25 C 2.835938 -3.195312 3.035156 -3.132812 3.234375 -3.0625 C 3.441406 -2.988281 3.628906 -2.890625 3.796875 -2.765625 C 3.960938 -2.648438 4.09375 -2.5 4.1875 -2.3125 C 4.289062 -2.125 4.34375 -1.890625 4.34375 -1.609375 C 4.34375 -1.316406 4.285156 -1.0625 4.171875 -0.84375 C 4.066406 -0.625 3.921875 -0.441406 3.734375 -0.296875 C 3.546875 -0.160156 3.335938 -0.0625 3.109375 0 C 2.878906 0.0703125 2.640625 0.109375 2.390625 0.109375 Z M 2.390625 0.109375 "/></g></g><g style="fill:#f4f6fc;fill-opacity:1;"><g transform="translate(236.253186, 258.649495)"><path style="stroke:none" d="M 2.53125 0.109375 C 2.03125 0.109375 1.65625 -0.03125 1.40625 -0.3125 C 1.164062 -0.59375 1.046875 -0.972656 1.046875 -1.453125 L 1.046875 -4.5 L 0.1875 -4.5 L 0.1875 -5.359375 L 1.0625 -5.359375 L 1.0625 -6.640625 L 2.078125 -7.46875 L 2.078125 -5.359375 L 3.4375 -5.359375 L 3.4375 -4.5 L 2.078125 -4.5 L 2.078125 -1.5625 C 2.078125 -1.28125 2.140625 -1.078125 2.265625 -0.953125 C 2.390625 -0.835938 2.546875 -0.78125 2.734375 -0.78125 C 2.847656 -0.78125 2.957031 -0.796875 3.0625 -0.828125 C 3.175781 -0.867188 3.28125 -0.910156 3.375 -0.953125 L 3.375 -0.03125 C 3.289062 0 3.171875 0.03125 3.015625 0.0625 C 2.867188 0.09375 2.707031 0.109375 2.53125 0.109375 Z M 2.53125 0.109375 "/></g></g></g></svg>